<?xml version="1.0" standalone="no"?>
<!DOCTYPE svg PUBLIC "-//W3C//DTD SVG 20010904//EN"
 "http://www.w3.org/TR/2001/REC-SVG-20010904/DTD/svg10.dtd">
<svg version="1.0" xmlns="http://www.w3.org/2000/svg"
 width="402.000000pt" height="48.000000pt" viewBox="0 0 402.000000 48.000000"
 preserveAspectRatio="xMidYMid meet">

<g transform="translate(0.000000,48.000000) scale(0.100000,-0.100000)"
fill="#000000" stroke="none">
<path d="M150 419 c-122 -69 -153 -99 -141 -132 9 -26 224 -157 258 -157 24 0
53 24 53 45 0 30 -15 46 -76 82 -35 20 -63 41 -62 45 2 4 32 25 68 46 56 32
65 42 68 69 2 23 -3 35 -20 47 -12 9 -27 16 -33 16 -5 0 -57 -28 -115 -61z"/>
<path d="M452 469 c-27 -10 -36 -31 -28 -63 4 -17 37 -41 120 -90 63 -36 126
-66 139 -66 31 0 47 18 47 52 0 31 -34 57 -180 136 -59 32 -80 38 -98 31z"/>
<path d="M1340 375 c0 -43 4 -75 10 -75 6 0 10 32 10 75 0 43 -4 75 -10 75 -6
0 -10 -32 -10 -75z"/>
<path d="M1990 375 c0 -43 4 -75 10 -75 6 0 10 32 10 75 0 43 -4 75 -10 75 -6
0 -10 -32 -10 -75z"/>
<path d="M2860 425 c0 -21 -5 -25 -30 -25 -23 0 -31 -5 -36 -26 -4 -14 -2 -36
4 -49 9 -20 18 -24 47 -23 l35 1 0 74 c0 42 -4 73 -10 73 -5 0 -10 -11 -10
-25z m-2 -69 c4 -32 -15 -51 -35 -34 -14 11 -18 50 -6 62 15 15 38 -1 41 -28z"/>
<path d="M3383 375 c0 -44 2 -61 4 -37 2 23 2 59 0 80 -2 20 -4 1 -4 -43z"/>
<path d="M3542 380 l-2 -75 29 -2 c37 -3 53 17 49 59 -3 29 -7 33 -35 36 -26
3 -33 8 -36 30 -2 15 -5 -7 -5 -48z m56 -24 c4 -32 -15 -51 -35 -34 -14 11
-18 50 -6 62 15 15 38 -1 41 -28z"/>
<path d="M882 427 c-18 -21 -24 -61 -13 -89 11 -30 41 -43 77 -34 19 5 24 13
24 36 0 26 -3 30 -27 29 -17 -1 -21 -3 -10 -6 20 -5 23 -39 3 -46 -22 -9 -56
21 -56 49 0 56 33 80 65 48 20 -20 33 -11 15 11 -15 18 -64 20 -78 2z"/>
<path d="M1550 370 c0 -70 0 -70 28 -70 45 0 72 25 72 69 0 46 -24 71 -68 71
l-32 0 0 -70z m64 47 c13 -9 17 -23 14 -52 -3 -35 -6 -40 -30 -43 -27 -3 -28
-2 -28 46 0 63 10 74 44 49z"/>
<path d="M2513 433 c-7 -2 -13 -15 -13 -29 0 -18 9 -27 35 -38 19 -8 35 -21
35 -29 0 -23 -31 -29 -52 -11 -23 21 -35 12 -13 -10 30 -30 85 -17 85 20 0 18
-10 28 -36 41 -40 19 -45 32 -19 48 12 8 20 5 30 -9 8 -11 18 -17 21 -13 4 4
1 13 -6 22 -12 15 -42 18 -67 8z"/>
<path d="M3257 422 c-36 -39 -10 -122 38 -122 13 0 31 7 40 16 22 23 12 29
-17 10 -36 -24 -60 -3 -56 48 4 50 29 68 57 41 25 -22 39 -14 16 9 -22 21 -58
20 -78 -2z"/>
<path d="M2619 413 c-4 -69 7 -113 29 -113 12 0 13 3 4 12 -16 16 -15 75 1 81
10 4 10 6 0 6 -7 1 -13 8 -13 16 0 21 -20 19 -21 -2z"/>
<path d="M3128 413 c-2 -10 -1 -38 2 -63 4 -35 9 -46 25 -48 16 -3 18 -1 8 9
-7 7 -13 27 -13 45 0 18 6 35 13 37 10 4 10 6 0 6 -7 1 -13 8 -13 16 0 21 -17
19 -22 -2z"/>
<path d="M1007 394 c-13 -13 -7 -71 8 -84 23 -19 64 -4 71 27 4 14 2 33 -3 42
-10 17 -64 27 -76 15z m61 -32 c4 -28 -14 -53 -33 -46 -32 13 -20 78 13 72 9
-2 18 -14 20 -26z"/>
<path d="M1122 388 c-28 -28 -3 -88 37 -88 34 0 52 41 35 84 -7 19 -55 21 -72
4z m56 -15 c17 -33 -10 -72 -35 -51 -14 11 -18 50 -6 61 12 13 32 7 41 -10z"/>
<path d="M1230 376 c-16 -44 17 -92 50 -71 5 3 10 -1 10 -9 0 -16 -8 -19 -45
-17 -18 1 -17 -1 3 -11 40 -20 57 0 60 71 l3 61 -36 0 c-28 0 -37 -5 -45 -24z
m60 -20 c0 -37 -21 -54 -40 -31 -18 21 -4 65 20 65 16 0 20 -7 20 -34z"/>
<path d="M1396 384 c-10 -25 -7 -59 6 -72 15 -15 55 -16 64 0 5 8 2 9 -11 5
-18 -7 -45 8 -45 24 0 5 16 9 35 9 38 0 40 2 25 31 -13 24 -65 26 -74 3z m62
-11 c2 -8 -6 -13 -22 -13 -25 0 -33 10 -19 24 10 10 36 3 41 -11z"/>
<path d="M1684 386 c-9 -25 0 -68 18 -79 11 -8 23 -7 40 1 20 10 21 12 3 11
-37 -2 -45 1 -45 16 0 10 10 15 31 15 26 0 30 3 27 23 -2 17 -11 23 -36 25
-21 2 -34 -2 -38 -12z m56 -11 c0 -8 -9 -15 -20 -15 -20 0 -26 11 -13 23 12
13 33 7 33 -8z"/>
<path d="M1780 397 c0 -15 34 -97 40 -97 4 0 15 21 24 47 19 55 19 53 6 53 -5
0 -12 -16 -16 -35 -7 -40 -20 -38 -29 5 -4 17 -11 30 -16 30 -5 0 -9 -1 -9 -3z"/>
<path d="M1892 388 c-17 -17 -15 -54 4 -72 18 -19 50 -21 60 -4 5 8 2 9 -11 5
-18 -7 -45 8 -45 24 0 5 16 9 35 9 38 0 40 2 25 31 -12 21 -50 25 -68 7z m56
-15 c2 -8 -6 -13 -22 -13 -25 0 -33 10 -19 24 10 10 36 3 41 -11z"/>
<path d="M2046 385 c-19 -51 5 -92 49 -81 28 7 44 49 28 75 -14 23 -69 27 -77
6z m62 -23 c4 -28 -14 -53 -34 -45 -14 5 -20 54 -7 67 14 13 38 0 41 -22z"/>
<path d="M2161 328 c1 -40 4 -61 6 -45 4 22 8 26 27 21 30 -7 48 16 44 58 -3
30 -6 33 -40 36 l-38 3 1 -73z m57 28 c4 -32 -15 -51 -35 -34 -14 11 -18 50
-6 62 15 15 38 -1 41 -28z"/>
<path d="M2269 374 c-18 -49 30 -92 71 -63 12 8 10 10 -9 5 -25 -5 -51 8 -51
25 0 5 16 9 35 9 19 0 35 4 35 9 0 27 -15 41 -41 41 -23 0 -32 -6 -40 -26z
m59 -1 c2 -8 -6 -13 -22 -13 -19 0 -24 4 -19 15 6 18 34 16 41 -2z"/>
<path d="M2381 348 c1 -29 3 -42 6 -28 9 56 14 69 31 73 10 3 6 5 -10 6 -27 1
-28 0 -27 -51z"/>
<path d="M2680 361 c0 -45 14 -60 52 -58 27 2 28 4 26 52 -1 42 -2 44 -5 13
-8 -70 -53 -76 -53 -7 0 21 -4 39 -10 39 -5 0 -10 -17 -10 -39z"/>
<path d="M2908 375 c-21 -47 31 -93 72 -64 12 8 10 10 -9 5 -25 -5 -51 8 -51
25 0 5 16 9 35 9 19 0 35 4 35 9 0 47 -62 59 -82 16z m60 -2 c2 -8 -6 -13 -22
-13 -19 0 -24 4 -19 15 6 18 34 16 41 -2z"/>
<path d="M3022 348 l1 -53 6 45 c5 36 10 45 26 45 16 0 21 -8 23 -42 4 -51 22
-58 22 -9 0 54 -8 66 -46 66 l-34 0 2 -52z"/>
<path d="M3420 368 c0 -47 14 -63 55 -64 l35 -1 0 48 c0 27 -4 49 -10 49 -5 0
-10 -15 -10 -33 0 -37 -15 -58 -36 -50 -9 3 -14 20 -14 44 0 21 -4 39 -10 39
-5 0 -10 -15 -10 -32z"/>
<path d="M3650 379 c0 -13 10 -23 30 -30 17 -6 30 -15 30 -20 0 -15 -30 -23
-43 -10 -17 17 -31 13 -17 -5 20 -23 64 -14 68 13 3 17 -3 24 -22 29 -14 3
-26 13 -26 21 0 11 7 13 25 9 14 -4 25 -2 25 4 0 5 -16 10 -35 10 -29 0 -35
-4 -35 -21z"/>
<path d="M940 110 c-4 -44 -9 -56 -24 -58 -11 -3 -26 4 -33 14 -7 10 -13 13
-13 8 0 -16 22 -34 41 -34 28 0 40 26 37 77 l-4 48 -4 -55z"/>
<path d="M1801 103 l-1 -63 43 2 42 1 -37 4 c-32 4 -38 8 -38 28 0 19 6 24 33
28 l32 4 -32 1 c-26 2 -32 7 -36 30 -2 15 -5 -1 -6 -35z"/>
<path d="M2144 111 c1 -61 21 -85 54 -65 12 8 17 25 18 65 l1 54 -6 -55 c-5
-50 -8 -55 -31 -55 -23 0 -26 5 -31 55 l-6 55 1 -54z"/>
<path d="M1514 101 c1 -39 5 -56 16 -58 10 -3 11 -2 3 4 -6 5 -14 31 -16 58
l-4 50 1 -54z"/>
<path d="M983 85 c0 -27 2 -38 4 -22 2 15 2 37 0 50 -2 12 -4 0 -4 -28z"/>
<path d="M1040 82 l5 -47 3 39 c2 21 0 42 -5 47 -4 4 -6 -13 -3 -39z"/>
<path d="M1083 85 c0 -27 2 -38 4 -22 2 15 2 37 0 50 -2 12 -4 0 -4 -28z"/>
<path d="M1121 128 c-1 -12 31 -89 35 -85 3 2 -4 24 -15 48 -11 24 -20 41 -20
37z"/>
<path d="M1267 109 c4 -13 8 -18 11 -10 2 7 -1 18 -6 23 -8 8 -9 4 -5 -13z"/>
<path d="M1313 85 c0 -27 2 -38 4 -22 2 15 2 37 0 50 -2 12 -4 0 -4 -28z"/>
<path d="M1374 119 c-3 -6 -2 -15 3 -20 5 -5 9 -1 9 11 0 23 -2 24 -12 9z"/>
<path d="M1463 85 c0 -27 2 -38 4 -22 2 15 2 37 0 50 -2 12 -4 0 -4 -28z"/>
<path d="M1616 89 c1 -53 14 -63 14 -11 0 22 -3 43 -8 46 -4 2 -7 -13 -6 -35z"/>
<path d="M1664 119 c-3 -6 -2 -15 3 -20 5 -5 9 -1 9 11 0 23 -2 24 -12 9z"/>
<path d="M1904 119 c-3 -6 -2 -15 3 -20 5 -5 9 -1 9 11 0 23 -2 24 -12 9z"/>
<path d="M2046 89 c2 -53 14 -63 14 -11 0 22 -3 43 -7 45 -5 3 -8 -13 -7 -34z"/>
<path d="M2252 81 c1 -41 2 -42 5 -11 3 19 9 40 14 46 5 7 3 11 -6 11 -11 0
-15 -12 -13 -46z"/>
<path d="M2308 93 c5 -59 10 -63 11 -10 1 26 -3 47 -7 47 -4 0 -6 -17 -4 -37z"/>
<path d="M2410 73 c-3 -34 -1 -58 3 -54 5 4 7 32 5 62 l-3 54 -5 -62z"/>
<path d="M2613 90 c0 -25 2 -35 4 -22 2 12 2 32 0 45 -2 12 -4 2 -4 -23z"/>
<path d="M1211 90 c-1 -29 15 -50 39 -49 10 0 9 3 -5 8 -11 4 -23 21 -26 37
-6 28 -7 28 -8 4z"/>
<path d="M2351 90 c-1 -29 15 -50 39 -49 10 0 9 3 -5 8 -11 4 -23 21 -26 37
-6 28 -7 28 -8 4z"/>
<path d="M2451 90 c-1 -29 15 -50 39 -49 10 0 9 3 -5 8 -11 4 -23 21 -26 37
-6 28 -7 28 -8 4z"/>
<path d="M1410 83 c15 -7 12 -31 -5 -36 -11 -4 -10 -4 2 -3 21 2 25 38 5 42
-7 1 -8 0 -2 -3z"/>
<path d="M1563 74 c-3 -9 0 -20 8 -25 22 -14 35 -10 14 4 -10 8 -15 19 -11 25
4 7 5 12 1 12 -3 0 -8 -7 -12 -16z"/>
<path d="M1709 78 c12 -16 10 -19 -10 -27 -16 -6 -18 -10 -8 -10 9 -1 22 5 28
13 9 10 7 17 -6 27 -16 13 -17 12 -4 -3z"/>
<path d="M1949 78 c12 -16 10 -19 -10 -27 -16 -6 -18 -10 -8 -10 9 -1 22 5 28
13 9 10 7 17 -6 27 -16 13 -17 12 -4 -3z"/>
<path d="M1995 80 c-8 -12 12 -40 28 -40 6 0 3 6 -8 13 -10 8 -15 19 -11 25 4
7 5 12 2 12 -3 0 -8 -5 -11 -10z"/>
<path d="M2563 60 c2 -8 12 -16 23 -17 13 -2 15 -1 4 4 -8 3 -19 11 -23 17 -6
7 -7 6 -4 -4z"/>
<path d="M2506 23 c-6 -14 -5 -15 5 -6 7 7 10 15 7 18 -3 3 -9 -2 -12 -12z"/>
</g>
</svg>
