<?xml version="1.0" standalone="no"?>
<!DOCTYPE svg PUBLIC "-//W3C//DTD SVG 20010904//EN"
 "http://www.w3.org/TR/2001/REC-SVG-20010904/DTD/svg10.dtd">
<svg version="1.0" xmlns="http://www.w3.org/2000/svg"
 width="907.000000pt" height="1024.000000pt" viewBox="0 0 907.000000 1024.000000"
 preserveAspectRatio="xMidYMid meet">

<g transform="translate(0.000000,1024.000000) scale(0.100000,-0.100000)"
fill="#000000" stroke="none">
<path d="M6 10232 c-3 -5 112 -152 254 -326 l260 -318 0 -4088 0 -4088 43 -15
c23 -8 301 -106 617 -217 806 -283 1436 -504 1995 -700 264 -93 679 -238 923
-324 l442 -155 598 210 c823 290 840 296 2157 759 644 227 1189 419 1213 427
l42 15 0 4088 0 4088 260 318 c142 174 257 321 254 326 -7 11 -9051 11 -9058
0z m9014 -26 c0 -2 -110 -138 -245 -302 l-244 -299 -1 -4086 c0 -3883 -1
-4087 -17 -4094 -10 -3 -830 -292 -1823 -642 -993 -349 -1883 -662 -1977 -695
l-173 -61 -977 343 c-538 188 -1090 382 -1228 431 -137 48 -590 207 -1005 353
-415 145 -763 267 -772 271 -17 7 -18 211 -18 4094 l-1 4086 -244 299 c-135
164 -245 300 -245 302 0 2 2018 4 4485 4 2467 0 4485 -2 4485 -4z"/>
<path d="M740 9896 c0 -2 38 -53 85 -112 l85 -109 0 -1107 0 -1108 415 0 415
0 0 185 0 185 378 2 377 3 7 97 c18 258 109 425 301 552 204 135 291 159 677
191 259 21 370 38 460 71 155 55 364 177 526 306 l69 55 60 -49 c151 -123 372
-253 526 -309 97 -35 203 -52 469 -74 386 -32 473 -56 677 -191 192 -127 283
-294 301 -552 l7 -97 378 -3 377 -2 0 -185 0 -185 415 0 415 0 0 1108 0 1107
85 109 c47 59 85 110 85 112 0 2 -1708 4 -3795 4 -2087 0 -3795 -2 -3795 -4z
m7540 -22 c0 -3 -31 -46 -70 -95 l-70 -88 -2 -1103 -3 -1103 -387 -3 -388 -2
-2 187 -3 188 -376 3 -377 2 -6 78 c-10 109 -41 235 -77 307 -61 125 -141 204
-309 305 -158 95 -262 120 -610 150 -276 23 -379 39 -474 75 -155 58 -358 179
-521 308 -57 46 -72 54 -85 44 -8 -6 -35 -28 -60 -48 -82 -67 -269 -188 -360
-234 -196 -98 -268 -115 -630 -145 -348 -30 -452 -55 -610 -150 -168 -101
-251 -183 -310 -306 -35 -72 -66 -198 -76 -306 l-6 -78 -377 -2 -376 -3 -3
-188 -2 -187 -388 2 -387 3 -3 1103 -2 1103 -70 88 c-39 49 -70 92 -70 95 0 3
1685 6 3745 6 2060 0 3745 -3 3745 -6z"/>
<path d="M1947 9432 c-65 -114 -126 -217 -135 -230 -10 -13 -36 -29 -57 -36
-22 -8 -41 -21 -43 -30 -3 -14 14 -16 138 -16 128 0 141 2 138 17 -2 10 -17
20 -37 24 -56 12 -58 38 -10 116 l21 33 114 0 114 0 31 -62 c30 -58 30 -62 13
-75 -10 -7 -30 -13 -45 -13 -38 0 -59 -9 -59 -26 0 -12 39 -14 221 -14 203 0
220 1 217 17 -2 11 -18 20 -44 26 -23 4 -48 15 -57 25 -8 9 -67 114 -130 232
l-115 215 -78 2 -79 3 -118 -208z m181 3 c23 -47 42 -87 42 -90 0 -3 -43 -5
-96 -5 -53 0 -94 3 -92 8 13 30 94 172 98 172 3 0 25 -38 48 -85z"/>
<path d="M3435 9434 c-133 -232 -154 -260 -198 -272 -18 -5 -33 -16 -35 -25
-3 -15 11 -17 138 -17 128 0 141 2 138 17 -2 10 -17 20 -36 24 -57 12 -60 23
-27 87 l30 57 117 3 117 3 26 -50 c39 -77 32 -101 -30 -101 -34 0 -55 -10 -55
-26 0 -12 38 -14 216 -14 199 0 215 1 212 17 -2 10 -12 19 -23 21 -64 10 -70
18 -196 253 l-123 229 -76 0 -77 0 -118 -206z m183 1 c23 -47 42 -87 42 -90 0
-3 -43 -5 -95 -5 -52 0 -95 3 -95 6 0 12 92 174 99 174 3 0 26 -38 49 -85z"/>
<path d="M5904 9433 c-140 -246 -163 -273 -228 -273 -54 0 -71 19 -82 95 -9
61 -45 101 -100 110 -21 3 -55 10 -74 15 l-35 8 32 1 c50 2 125 30 156 59 35
33 37 89 4 120 -56 53 -81 57 -389 60 -256 3 -288 2 -288 -12 0 -12 10 -16 34
-16 63 0 66 -10 66 -216 0 -102 -4 -193 -10 -203 -5 -11 -26 -21 -50 -25 -26
-4 -40 -11 -40 -21 0 -13 29 -15 195 -15 166 0 195 2 195 15 0 8 -12 17 -27
21 -67 15 -63 7 -63 111 l0 95 71 -4 c88 -5 103 -20 113 -109 8 -77 25 -105
73 -118 21 -6 138 -11 266 -11 197 0 227 2 227 15 0 16 -5 19 -53 29 -40 9
-43 29 -11 91 l28 56 115 -3 116 -3 28 -53 c31 -58 30 -79 -5 -86 -13 -3 -35
-7 -50 -11 -16 -3 -28 -12 -28 -20 0 -13 31 -15 210 -15 199 0 210 1 210 19 0
14 -10 20 -39 25 -21 3 -45 13 -52 22 -8 9 -66 114 -129 233 l-115 216 -77 3
-76 3 -118 -208z m-547 140 c25 -18 28 -26 28 -78 0 -74 -21 -93 -118 -102
l-67 -6 0 108 0 107 65 -4 c45 -3 73 -10 92 -25z m728 -143 l45 -90 -95 0
c-53 0 -95 4 -95 9 0 6 8 25 19 43 58 104 72 128 76 128 3 0 25 -40 50 -90z"/>
<path d="M7372 9428 c-124 -220 -149 -254 -198 -267 -16 -4 -30 -15 -32 -24
-3 -15 11 -17 138 -17 128 0 141 2 138 17 -2 10 -17 20 -36 24 -57 12 -60 23
-27 87 l30 57 116 3 115 3 29 -60 c32 -68 26 -91 -25 -91 -39 0 -60 -9 -60
-26 0 -12 38 -14 216 -14 198 0 215 1 212 17 -2 11 -18 20 -42 25 -22 5 -45
13 -51 18 -7 6 -66 111 -131 235 l-119 225 -76 0 -76 0 -121 -212z m185 2 l41
-90 -94 0 c-52 0 -94 3 -94 6 0 12 92 174 98 174 4 0 26 -40 49 -90z"/>
<path d="M1330 9615 c0 -11 11 -15 38 -15 21 0 43 -5 50 -12 8 -8 12 -66 12
-194 0 -178 -1 -184 -24 -210 -20 -24 -31 -28 -74 -28 -28 0 -54 3 -57 6 -4 3
5 17 19 31 55 55 9 117 -87 117 -60 0 -101 -20 -116 -59 -19 -44 5 -82 71
-112 46 -20 69 -23 173 -24 140 0 199 14 250 59 47 41 54 75 55 262 0 166 -1
164 61 164 19 0 29 5 29 15 0 13 -29 15 -200 15 -171 0 -200 -2 -200 -15z"/>
<path d="M2470 9617 c0 -7 19 -17 42 -23 37 -8 56 -24 155 -134 l113 -125 0
-82 c0 -89 3 -84 -67 -98 -19 -4 -33 -13 -33 -21 0 -12 35 -14 205 -14 168 0
205 2 205 14 0 9 -18 17 -47 22 l-48 9 -3 96 -3 96 107 112 c89 93 114 114
150 123 24 7 44 18 44 25 0 10 -32 13 -140 13 -113 0 -140 -3 -140 -14 0 -8
15 -17 35 -20 19 -4 37 -11 40 -16 9 -15 -20 -60 -83 -128 l-58 -64 -60 74
c-85 102 -93 116 -74 128 8 5 27 10 43 10 17 0 27 5 27 15 0 13 -29 15 -205
15 -162 0 -205 -3 -205 -13z"/>
<path d="M6420 9616 c0 -8 15 -16 38 -19 40 -7 69 -34 200 -185 l72 -82 0 -74
c0 -82 -5 -90 -62 -100 -24 -4 -38 -13 -38 -21 0 -13 32 -15 200 -15 166 0
200 2 200 14 0 8 -14 17 -32 21 -72 14 -68 8 -68 108 l0 92 113 117 c92 96
119 118 150 123 21 4 37 13 37 21 0 11 -27 14 -140 14 -118 0 -140 -2 -140
-15 0 -9 9 -15 23 -15 13 0 32 -6 42 -14 26 -19 14 -42 -65 -129 l-62 -67 -73
92 c-80 100 -83 118 -19 118 24 0 34 5 34 15 0 13 -29 15 -205 15 -167 0 -205
-3 -205 -14z"/>
<path d="M4411 8675 c-130 -96 -296 -199 -397 -245 -129 -58 -190 -70 -429
-80 -339 -15 -425 -42 -556 -173 -50 -50 -80 -91 -109 -151 -50 -101 -69 -186
-77 -348 l-6 -128 -379 0 -378 0 0 -230 0 -230 -590 0 -590 0 2 -2716 3 -2716
1815 -604 1815 -604 1815 605 1815 604 3 2716 2 2715 -590 0 -590 0 0 230 0
230 -378 0 -379 0 -6 128 c-8 162 -27 247 -77 348 -29 60 -59 101 -109 151
-131 131 -216 157 -556 172 -256 12 -314 24 -470 103 -107 53 -274 160 -394
251 -41 32 -79 57 -85 57 -6 -1 -62 -39 -125 -85z m449 -891 c0 -3 -13 -25
-30 -49 -16 -24 -30 -48 -30 -53 0 -5 23 -41 50 -80 28 -39 50 -74 50 -78 0
-3 -23 -35 -51 -70 l-51 -64 -64 0 -64 0 0 -57 c1 -74 14 -376 40 -868 23
-445 60 -1186 90 -1800 11 -231 23 -439 26 -462 l5 -43 306 0 306 0 73 -55 73
-55 -57 -83 -58 -82 -106 -5 c-101 -5 -110 -7 -194 -50 -124 -63 -211 -151
-281 -286 -29 -56 -53 -106 -53 -112 0 -8 51 -12 163 -14 l162 -3 3 -97 3 -98
317 -2 317 -3 0 -100 0 -100 -1270 0 -1270 0 0 100 0 100 313 3 312 2 0 100 0
100 160 0 c120 0 160 3 160 12 0 7 -21 55 -47 107 -76 150 -187 254 -340 319
-42 18 -71 22 -155 22 l-103 0 -57 82 c-31 45 -55 85 -52 90 3 4 33 29 67 55
l62 48 335 5 335 5 17 330 c9 182 28 566 43 855 14 289 35 696 45 905 11 209
22 430 25 490 17 374 26 546 31 593 l5 52 -68 0 -69 0 -53 66 -53 66 51 75
c28 41 51 79 51 85 0 5 -13 29 -30 53 -16 24 -30 46 -30 49 0 3 144 6 320 6
176 0 320 -3 320 -6z m1119 -443 c25 -17 80 -114 81 -142 0 -8 -7 -24 -15 -35
-14 -19 -14 -19 -30 4 -21 28 -85 32 -85 5 0 -10 -7 -31 -15 -47 -8 -15 -15
-39 -15 -52 0 -18 -9 -27 -35 -38 -26 -11 -35 -21 -35 -39 0 -23 -2 -23 -46
-17 -64 10 -95 44 -102 109 -3 37 0 57 10 69 8 9 20 31 27 49 9 22 22 34 42
38 35 8 44 21 40 57 -1 15 2 36 8 47 10 18 18 20 79 15 38 -4 77 -13 91 -23z
m461 -127 c92 -98 124 -163 123 -256 0 -85 -15 -121 -59 -141 l-34 -17 0 38
c0 29 7 43 30 64 35 30 44 92 13 86 -9 -2 -20 -14 -24 -28 -7 -24 -7 -23 -8 6
-1 17 6 48 14 67 22 53 20 87 -5 87 -14 0 -20 -7 -20 -22 -1 -14 -9 -1 -20 31
-24 67 -46 101 -65 101 -19 0 -19 -13 1 -52 9 -16 22 -49 30 -71 l15 -42 -34
33 c-32 31 -67 42 -67 21 0 -6 25 -35 55 -64 44 -42 55 -59 55 -84 l0 -32 -30
35 c-17 19 -41 36 -53 38 -25 4 -35 31 -36 102 -1 72 19 176 34 176 7 0 45
-34 85 -76z m-3835 -86 c-20 -144 -72 -234 -224 -383 l-61 -59 0 64 c1 85 22
130 105 220 36 40 91 104 123 141 31 38 58 69 60 69 2 0 1 -24 -3 -52z m350 5
c-11 -62 -61 -159 -105 -207 -46 -49 -147 -106 -190 -106 l-26 0 7 60 c13 110
19 117 207 232 53 32 100 58 105 58 5 0 6 -17 2 -37z m3045 2 c18 -20 31 -24
51 -20 24 5 28 1 48 -45 12 -28 25 -75 28 -103 7 -69 39 -122 114 -191 77 -71
107 -92 119 -80 5 5 14 40 19 76 5 37 12 72 16 78 3 6 -5 36 -19 68 l-26 57
44 -46 c49 -51 49 -50 25 -172 -5 -26 -9 -70 -9 -97 0 -48 0 -48 79 -114 43
-36 115 -104 160 -152 49 -51 87 -84 95 -81 18 7 56 121 56 166 0 20 -14 65
-30 100 l-31 64 37 38 c33 33 36 41 30 73 -6 33 -5 36 18 36 36 0 56 -10 56
-29 0 -9 7 -27 16 -39 12 -18 25 -22 70 -22 30 0 54 -2 54 -5 0 -17 -39 -60
-72 -81 -20 -13 -44 -37 -53 -54 -8 -16 -26 -40 -40 -54 -14 -14 -25 -34 -25
-44 0 -10 -11 -52 -25 -92 -34 -99 -32 -127 9 -188 19 -27 61 -103 94 -168 33
-66 69 -128 81 -138 13 -12 37 -20 64 -20 l42 -1 6 155 c4 85 7 180 8 210 1
43 4 51 12 38 25 -45 49 -10 49 72 0 59 19 129 30 109 4 -7 10 -58 13 -111 4
-75 1 -109 -12 -152 -17 -56 -31 -64 -31 -19 0 18 -5 24 -17 21 -14 -3 -17
-12 -15 -43 2 -21 10 -48 18 -59 8 -11 14 -34 14 -51 -1 -25 -2 -27 -11 -12
-5 9 -17 17 -24 17 -18 0 -18 -23 -1 -70 10 -30 9 -45 -6 -102 l-19 -66 46
-139 c33 -98 49 -165 56 -233 11 -115 16 -140 29 -140 13 0 119 67 148 94 44
39 66 95 67 171 1 45 7 81 18 102 9 18 17 47 17 66 l0 35 37 -19 c21 -10 44
-19 53 -19 8 0 32 -5 53 -11 l37 -10 0 -64 c0 -57 3 -68 30 -98 16 -19 27 -37
23 -41 -3 -3 -30 -6 -58 -6 -46 0 -62 -6 -128 -50 -42 -27 -91 -57 -109 -66
-18 -9 -56 -32 -85 -51 l-51 -35 -6 -67 c-3 -36 -7 -179 -8 -318 l-3 -251 24
-26 c32 -34 63 -33 105 5 25 22 40 47 52 87 8 31 19 71 24 87 5 17 12 50 15
75 10 63 30 97 68 116 49 25 66 44 78 86 8 33 13 37 24 28 26 -22 107 58 154
151 l40 80 20 -40 c12 -22 21 -59 21 -81 0 -27 5 -43 15 -46 10 -4 15 -21 15
-54 0 -43 -2 -48 -20 -43 -13 3 -22 -1 -26 -11 -4 -9 -20 -24 -36 -32 -29 -15
-30 -15 -23 6 46 145 57 220 31 220 -9 0 -21 -31 -35 -92 -12 -51 -29 -104
-37 -118 -14 -24 -14 -22 -12 34 3 66 -13 86 -34 41 -9 -21 -9 -42 0 -96 12
-68 11 -71 -15 -116 -25 -43 -27 -45 -35 -23 -5 13 -7 48 -6 79 2 58 -6 85
-24 79 -16 -6 -19 -115 -6 -173 l11 -49 -54 -49 c-54 -48 -54 -48 -57 -22 -2
14 1 49 7 76 15 70 14 109 -3 109 -21 0 -28 -26 -33 -141 l-6 -106 -83 -68
c-74 -59 -86 -73 -99 -118 -18 -60 -43 -300 -47 -442 l-3 -100 35 3 c19 1 55
13 80 25 50 25 67 52 121 192 27 70 30 88 25 144 l-6 65 33 -32 c38 -36 44
-38 68 -16 16 14 19 11 42 -40 20 -42 33 -58 60 -69 36 -15 67 -66 67 -109 0
-14 11 -35 25 -48 19 -18 25 -34 25 -65 l0 -42 -162 1 c-198 1 -245 -9 -324
-70 -31 -24 -61 -44 -67 -44 -6 0 -19 -7 -29 -17 -14 -12 -18 -31 -18 -81 0
-71 -38 -185 -92 -273 -15 -25 -28 -51 -28 -58 0 -23 30 -10 57 27 100 135
137 172 191 192 49 19 55 19 66 5 10 -15 18 -13 70 14 58 31 82 36 122 25 15
-4 20 -11 17 -25 -7 -27 16 -32 64 -15 l40 14 -4 -46 c-3 -29 -13 -55 -27 -69
l-21 -23 0 43 c0 31 -4 42 -15 42 -10 0 -17 -14 -21 -43 -6 -49 -32 -87 -79
-119 -39 -27 -59 -30 -37 -5 16 17 57 106 57 123 0 5 -7 9 -15 9 -9 0 -26 -23
-40 -53 -33 -68 -126 -147 -174 -147 -4 0 1 25 11 56 21 63 21 99 -2 99 -9 0
-17 -15 -22 -42 -9 -57 -35 -109 -61 -126 -12 -8 -53 -24 -92 -37 -96 -31
-114 -41 -216 -122 -73 -58 -102 -89 -154 -167 -35 -53 -79 -112 -99 -130 -20
-19 -36 -40 -36 -47 0 -17 54 -34 105 -34 59 0 151 63 224 152 30 37 63 68 72
68 9 0 26 -16 38 -35 11 -19 28 -35 38 -35 36 -1 57 -28 58 -76 0 -42 -2 -47
-31 -59 -17 -7 -35 -18 -38 -24 -11 -17 20 -77 52 -100 31 -22 31 -22 12 -41
-16 -16 -20 -34 -20 -86 l0 -65 -31 18 c-16 10 -69 47 -117 82 -116 86 -176
116 -261 131 -117 21 -128 15 -326 -179 l-170 -167 -75 -22 c-41 -12 -80 -22
-86 -22 -6 0 -17 -6 -23 -14 -20 -24 17 -35 141 -42 107 -6 118 -4 213 26 55
17 143 38 196 47 82 15 104 15 153 4 42 -9 56 -17 52 -27 -7 -19 25 -39 113
-70 42 -14 93 -33 114 -42 35 -14 37 -17 18 -24 -34 -12 -25 -25 40 -59 40
-22 83 -57 122 -101 86 -95 85 -95 35 -108 -24 -6 -60 -18 -80 -25 -36 -14
-38 -14 -38 4 0 12 -8 21 -22 24 -15 3 -10 5 13 6 60 2 99 13 99 27 0 10 -15
14 -56 14 l-56 0 26 31 c25 30 27 49 3 49 -6 0 -27 -18 -47 -41 -31 -36 -39
-40 -74 -37 l-39 3 51 35 c29 19 52 40 52 47 0 25 -22 23 -59 -6 -68 -54 -127
-64 -202 -35 l-40 17 53 29 c64 35 108 76 108 100 0 22 -28 24 -36 3 -3 -8
-33 -33 -66 -55 -71 -47 -113 -51 -190 -18 l-50 21 89 32 c101 36 153 62 153
75 0 22 -26 19 -103 -14 -45 -19 -105 -41 -133 -47 -51 -12 -124 -6 -124 11 0
4 43 30 95 57 87 44 109 63 87 77 -8 5 -156 -66 -205 -98 -27 -18 -30 -18
-105 2 -177 48 -348 52 -512 13 -80 -20 -115 -21 -598 -21 -491 0 -552 3 -552
29 0 4 19 14 43 21 23 7 59 21 79 31 35 18 66 19 480 19 244 0 461 5 482 10
45 10 81 34 110 74 31 41 29 178 -4 261 -16 41 -24 83 -25 130 0 39 -5 88 -9
111 -7 37 -6 43 18 62 20 15 36 19 60 15 54 -9 136 41 136 82 0 13 7 26 16 29
43 17 58 -1 74 -86 13 -66 34 -88 114 -118 l66 -24 -23 -24 c-28 -30 -189
-112 -220 -112 -44 0 -87 -22 -102 -51 -16 -29 -19 -194 -6 -254 9 -39 20 -37
147 25 119 58 217 143 304 264 30 42 88 120 128 173 85 112 152 218 183 287
18 41 21 63 17 135 -5 95 -23 146 -101 275 -38 63 -42 75 -35 104 14 53 6 157
-12 157 -12 0 -16 -16 -18 -74 l-3 -74 -23 34 c-21 30 -23 41 -18 126 5 90 4
93 -17 93 -19 0 -21 -5 -21 -67 l0 -68 -25 36 c-20 30 -25 51 -27 115 -3 66
-6 79 -20 82 -16 3 -18 -5 -18 -54 0 -56 0 -57 -20 -39 -13 11 -20 32 -21 54
-1 51 -23 105 -44 110 -19 3 -18 -8 1 -79 7 -23 5 -22 -37 12 -24 20 -66 49
-92 66 l-48 30 56 7 c115 15 224 -17 290 -85 20 -21 60 -73 89 -116 45 -70 54
-79 79 -77 26 2 31 -4 54 -53 28 -61 34 -153 19 -271 -9 -61 -8 -63 28 -111
42 -58 56 -65 94 -51 61 23 99 77 153 213 l51 131 -4 110 c-3 92 -7 116 -25
145 -29 48 -89 80 -146 80 -41 0 -52 6 -116 61 -39 34 -71 67 -71 74 0 7 -9
20 -20 30 -28 25 -26 29 21 50 48 22 69 49 69 87 0 43 20 39 160 -32 10 -5 17
-31 22 -86 10 -106 13 -118 48 -158 37 -42 81 -60 105 -42 21 15 44 183 45
329 0 100 -2 112 -30 168 -28 55 -86 145 -144 222 -18 25 -25 49 -29 110 -3
49 -13 94 -27 121 -25 52 -86 104 -102 88 -8 -8 0 -24 30 -56 40 -44 62 -95
62 -149 l0 -28 -40 33 c-23 18 -49 49 -60 68 -10 19 -34 53 -53 75 -30 34 -36
37 -42 23 -4 -11 2 -29 15 -48 l22 -31 -44 22 c-23 11 -55 39 -70 60 -15 21
-35 39 -43 39 -18 0 -20 -21 -2 -39 10 -12 8 -13 -8 -6 -130 48 -158 54 -153
29 2 -10 35 -28 88 -48 81 -30 83 -31 48 -34 -25 -2 -38 -8 -38 -17 0 -22 48
-30 88 -15 31 11 40 10 83 -11 27 -12 49 -26 49 -31 0 -4 -40 -8 -90 -8 -70 0
-90 -3 -90 -14 0 -8 7 -17 16 -20 24 -9 134 -7 179 4 38 9 42 8 80 -30 l40
-40 -52 0 c-53 0 -77 -15 -52 -31 8 -5 42 -9 77 -8 54 2 65 -1 77 -19 19 -26
10 -32 -58 -39 -46 -4 -57 -2 -91 24 -23 17 -43 42 -50 63 -11 35 -12 35 -81
41 -40 3 -86 14 -108 25 -38 20 -38 20 -18 39 12 10 21 21 21 26 0 4 -21 20
-47 35 -59 34 -143 112 -143 131 0 13 25 14 163 11 162 -3 162 -3 165 20 4 26
18 27 107 11 33 -6 70 -12 82 -13 29 -3 62 -33 79 -72 18 -43 45 -164 39 -175
-8 -12 18 -60 45 -84 13 -11 31 -39 41 -62 11 -26 25 -43 35 -43 15 0 16 18
12 198 -4 172 -7 203 -26 244 -39 89 -169 206 -259 233 -26 8 -49 15 -50 15
-1 0 -25 -20 -53 -45 -28 -25 -58 -45 -66 -45 -32 0 -123 31 -136 47 -11 13
-9 18 12 32 69 46 68 44 33 94 l-32 46 28 6 c33 7 65 38 80 76 15 42 56 28 94
-32 16 -27 33 -49 37 -49 4 0 28 -27 54 -60 68 -88 236 -193 236 -147 0 27
-52 228 -82 316 -25 71 -42 105 -76 142 -59 66 -193 153 -267 174 -92 27 -185
71 -185 89 0 18 -64 92 -92 107 -14 8 -20 6 -25 -7 -4 -11 8 -28 38 -55 l44
-39 -50 21 c-31 12 -64 37 -88 65 -38 43 -67 57 -67 31 0 -7 5 -18 12 -25 18
-18 5 -15 -58 13 -66 29 -74 30 -74 9 0 -9 28 -28 72 -49 64 -29 70 -34 48
-39 -14 -3 -34 -5 -45 -3 -14 1 -21 -5 -23 -20 -3 -19 1 -23 24 -23 16 0 47 7
69 16 39 14 44 14 101 -8 l59 -23 -48 -3 c-39 -3 -48 -6 -45 -20 4 -22 60 -28
109 -12 31 10 41 9 72 -7 l37 -18 -80 -23 c-78 -23 -82 -23 -138 -6 -50 14
-54 17 -34 25 12 5 22 15 22 24 0 8 -2 15 -4 15 -28 0 -163 33 -188 46 -46 23
-46 23 -18 44 29 22 22 32 -32 49 -21 7 -49 27 -64 44 l-27 32 22 3 c13 2 77
-1 144 -7 130 -12 154 -7 123 28 -17 19 -17 19 46 1 35 -10 85 -22 112 -25 60
-8 98 -45 146 -139 18 -34 39 -69 47 -78 27 -30 133 -21 133 11 0 24 -116 225
-178 309 -47 63 -188 195 -246 231 -34 20 -69 7 -88 -32 -13 -27 -28 -38 -76
-55 -74 -27 -90 -27 -94 0 -2 14 -14 25 -36 32 l-33 11 42 30 c23 17 53 40 66
53 19 17 36 22 79 22 71 0 77 15 31 77 -51 69 -187 200 -220 212 -16 6 -55 11
-87 11 -57 0 -62 2 -107 46 l-48 46 35 16 c28 14 36 24 41 52 6 43 28 100 38
100 4 0 18 -11 31 -25z m929 -153 c24 -25 60 -47 108 -66 63 -24 73 -31 83
-61 17 -53 15 -93 -7 -123 -23 -31 -63 -42 -63 -18 0 13 -12 16 -61 16 -59 0
-60 1 -74 35 -18 43 -41 55 -99 55 -43 0 -46 -2 -46 -27 l0 -26 -26 24 c-34
31 -56 76 -50 97 5 14 63 55 100 71 6 2 21 17 34 32 32 39 58 36 101 -9z
m-4680 -69 c6 -31 11 -103 11 -159 0 -101 -1 -105 -40 -181 -22 -42 -51 -89
-64 -103 -12 -14 -33 -41 -47 -60 l-23 -34 -9 34 c-4 19 -9 85 -10 145 -1 98
2 117 25 172 27 67 128 243 139 243 3 0 11 -26 18 -57z m354 -70 c-12 -32 -36
-67 -97 -138 -79 -93 -148 -165 -158 -165 -4 0 -8 15 -8 34 0 19 -5 36 -12 38
-21 7 38 92 94 136 56 43 167 112 180 112 4 0 4 -8 1 -17z m-589 -100 c27
-151 30 -231 12 -300 -17 -69 -72 -182 -110 -228 -24 -27 -26 -28 -33 -10 -4
11 -8 70 -8 130 1 101 5 123 47 265 25 85 49 174 53 198 4 23 10 40 15 37 4
-3 15 -44 24 -92z m866 40 c0 -20 -89 -152 -127 -189 -57 -56 -114 -74 -222
-73 -47 1 -98 4 -113 8 -26 6 -25 7 52 96 42 49 88 93 101 96 13 4 62 8 109 8
84 1 157 22 174 50 8 12 26 15 26 4z m3258 -122 c18 -11 43 -61 37 -71 -3 -5
-19 -12 -36 -15 -18 -4 -33 -15 -36 -25 -3 -10 -16 -21 -29 -24 -13 -4 -24
-12 -24 -20 0 -17 30 -43 55 -48 15 -2 20 -12 22 -35 1 -26 -3 -32 -24 -38
-38 -9 -209 78 -229 117 -20 38 -15 70 14 84 12 6 33 21 45 32 12 12 38 28 57
36 38 16 127 21 148 7z m-3833 -148 c-13 -90 -41 -137 -121 -202 l-74 -61 0
37 c0 80 18 114 101 196 43 42 84 77 90 77 8 0 9 -15 4 -47z m5090 -47 c28
-85 41 -101 71 -89 12 5 15 1 11 -13 -3 -10 -8 -39 -12 -64 -4 -25 -15 -69
-26 -99 -22 -59 -17 -71 29 -71 12 0 22 -3 22 -6 0 -22 -52 -82 -109 -128 -72
-57 -201 -139 -208 -132 -3 2 1 17 9 33 10 22 27 32 75 48 71 23 104 48 85 67
-8 8 -15 8 -26 -1 -17 -14 -107 -43 -113 -37 -2 2 -1 20 2 40 7 32 11 36 60
50 47 14 105 56 105 77 0 20 -23 19 -45 -1 -22 -20 -96 -52 -104 -45 -2 2 6
35 18 73 21 69 21 70 64 81 49 12 97 45 97 67 0 19 -17 18 -48 -5 -15 -10 -37
-22 -50 -26 -21 -6 -20 0 23 85 31 61 43 96 37 102 -17 17 -32 -1 -72 -84
l-39 -79 -6 48 c-3 26 -8 57 -10 69 -6 26 91 122 126 124 3 0 18 -38 34 -84z
m-5605 -68 c18 -46 37 -111 42 -145 10 -56 8 -70 -16 -150 -15 -48 -42 -122
-61 -163 -18 -41 -36 -88 -40 -103 -5 -25 -8 -27 -22 -15 -9 7 -27 36 -39 63
-32 67 -32 155 0 271 51 190 91 324 98 324 3 0 21 -37 38 -82z m930 58 c0 -10
-116 -114 -182 -164 -103 -77 -178 -112 -277 -128 -47 -8 -105 -14 -129 -14
-41 0 -42 1 -36 28 10 39 8 37 93 104 42 33 84 73 94 88 15 25 29 30 105 43
48 9 136 21 197 27 60 6 112 13 114 16 6 5 21 5 21 0z m-634 -138 c-3 -13 -8
-54 -11 -93 -8 -83 -40 -149 -118 -246 l-52 -64 -6 110 c-4 69 -3 117 4 130
13 25 168 185 179 185 5 0 6 -10 4 -22z m334 -254 c-62 -63 -154 -135 -221
-173 -51 -28 -240 -81 -293 -81 -33 0 -11 54 56 135 74 88 78 90 313 131 83
14 152 28 154 30 2 2 11 4 20 4 9 0 -2 -17 -29 -46z m-827 -123 c19 -47 40
-114 47 -147 11 -57 11 -64 -13 -110 -24 -48 -60 -151 -72 -208 -10 -49 -25
-10 -25 69 0 45 -8 90 -21 125 -25 67 -25 79 2 254 25 160 25 160 82 17z m284
-13 c-6 -97 -30 -162 -89 -244 -30 -42 -33 -44 -46 -27 -10 13 -13 38 -8 98 7
103 25 155 83 233 58 78 68 68 60 -60z m5933 12 c34 -17 40 -25 40 -53 0 -33
30 -141 43 -153 4 -4 7 -18 7 -31 0 -17 -17 -35 -62 -69 -35 -25 -76 -53 -92
-61 -37 -19 -46 -7 -46 69 0 68 -12 80 -101 98 -106 21 -121 83 -38 154 93 79
160 92 249 46z m-6337 -249 l32 -66 -3 -240 c-2 -132 -6 -242 -8 -245 -3 -2
-9 2 -13 9 -10 16 -31 6 -31 -15 0 -48 -53 30 -90 133 l-23 63 17 228 c10 125
15 241 11 257 -6 29 -6 29 34 -14 23 -24 56 -73 74 -110z m797 78 c0 -21 -195
-204 -247 -232 -41 -22 -221 -76 -254 -77 -3 0 -4 35 -1 78 5 86 21 113 97
157 91 53 405 111 405 74z m4396 -57 c85 -39 84 -38 68 -74 -9 -18 -19 -39
-23 -47 -4 -8 -32 -23 -61 -33 -71 -24 -81 -35 -44 -48 16 -6 38 -23 48 -37
19 -26 19 -26 -5 -45 -58 -46 -59 -48 -53 -73 6 -25 6 -25 -67 -25 -82 0 -141
22 -147 54 -2 10 6 32 18 49 18 24 21 33 11 46 -61 84 -62 106 -5 160 33 30
41 33 80 28 32 -3 47 0 56 11 14 16 68 52 79 52 4 0 24 -8 45 -18z m-4962 -45
c32 -42 48 -111 36 -161 -21 -92 -80 -221 -80 -174 0 19 -44 78 -62 84 -23 7
-23 43 -2 115 20 69 64 169 75 169 4 0 19 -15 33 -33z m-396 -345 c27 -64 62
-155 77 -201 l28 -84 -18 -71 c-9 -39 -19 -106 -22 -149 l-6 -78 -29 28 c-48
45 -106 145 -123 208 -8 32 -15 89 -15 125 0 115 35 354 50 345 5 -3 30 -58
58 -123z m782 99 c0 -14 -137 -191 -194 -249 -55 -57 -92 -80 -194 -119 l-64
-24 6 28 c6 28 24 141 32 200 9 66 89 124 214 157 61 16 200 21 200 7z m-450
-109 c13 -49 13 -76 -4 -164 -20 -106 -47 -191 -56 -181 -4 4 -20 45 -34 91
-43 136 -36 217 27 306 l20 29 18 -22 c10 -13 23 -39 29 -59z m291 -278 c-43
-198 -84 -258 -233 -342 -94 -54 -124 -63 -114 -37 4 10 10 61 13 112 6 90 8
97 44 141 20 26 64 69 98 95 79 62 205 140 209 129 1 -5 -6 -49 -17 -98z
m-399 -33 c26 -63 32 -92 36 -174 4 -97 -20 -277 -38 -277 -4 0 -11 12 -15 27
-10 43 -73 173 -82 173 -5 0 -14 -5 -21 -12 -9 -9 -12 5 -12 63 0 74 27 205
57 277 14 34 16 35 29 18 7 -11 28 -53 46 -95z m6385 -32 c-6 -64 -26 -99 -59
-99 -10 0 -21 -6 -24 -14 -6 -17 -57 -28 -83 -18 -18 7 -17 10 11 60 23 40 42
59 77 77 26 13 53 31 60 39 22 26 24 19 18 -45z m-6665 -154 c27 -38 62 -92
76 -120 28 -53 27 -37 19 -272 -1 -29 -4 -53 -7 -52 -10 1 -126 142 -162 196
-59 89 -71 137 -66 261 2 59 7 113 12 121 11 17 45 -20 128 -134z m6648 16 c0
-12 -107 -111 -176 -163 -43 -32 -68 -43 -126 -53 -40 -7 -86 -16 -103 -20
l-30 -6 30 26 c38 33 67 45 110 45 47 0 125 39 125 62 0 23 -2 22 -50 -2 -22
-11 -49 -20 -62 -20 -20 0 -16 6 27 50 l49 50 67 0 c52 0 72 4 90 20 25 20 49
26 49 11z m-6010 -180 c-16 -101 -54 -219 -83 -258 -18 -25 -160 -137 -223
-175 -6 -4 -10 22 -11 75 0 45 -6 104 -12 131 -11 45 -10 50 14 82 56 73 315
259 324 232 2 -5 -2 -45 -9 -87z m-375 -157 c14 -48 28 -117 31 -154 7 -70 -2
-160 -15 -160 -4 0 -13 16 -20 35 -12 34 -56 85 -114 132 -23 18 -27 29 -27
75 0 55 19 148 47 233 l17 50 28 -63 c15 -34 39 -101 53 -148z m5472 95 c39
-24 43 -35 43 -120 0 -63 -2 -69 -20 -69 -12 0 -31 7 -44 15 -69 46 -126 37
-126 -19 0 -38 -19 -58 -74 -81 -21 -9 -40 -25 -43 -36 -13 -48 -63 2 -63 63
0 27 8 47 29 70 39 46 51 71 51 110 0 48 18 67 75 82 60 16 129 10 172 -15z
m-5837 -96 c28 -42 68 -84 111 -116 l68 -51 6 -65 c4 -36 11 -90 16 -120 12
-71 12 -124 -1 -119 -5 2 -61 51 -123 109 -88 83 -116 116 -125 147 -13 43
-17 282 -4 282 4 0 27 -30 52 -67z m6722 10 c14 -16 29 -38 32 -50 11 -34 30
-45 59 -34 37 14 59 -10 56 -60 -3 -30 2 -44 24 -67 35 -36 34 -55 -5 -155
-40 -104 -51 -117 -99 -117 -34 0 -40 4 -53 34 -8 18 -19 36 -24 40 -6 3 -18
30 -26 59 -15 52 -44 89 -87 111 -13 6 -31 33 -42 59 -18 42 -18 51 -6 74 21
39 113 133 130 133 8 0 27 -12 41 -27z m-5955 -193 c-10 -147 -38 -189 -175
-271 -48 -29 -106 -67 -129 -86 l-41 -33 -6 27 c-3 16 -8 56 -11 90 -6 57 -5
65 23 105 38 55 111 118 229 196 50 34 95 67 100 74 12 20 16 -17 10 -102z
m-475 -37 c52 -54 82 -161 101 -355 8 -83 -7 -77 -77 29 -75 112 -92 162 -102
297 l-7 88 29 -15 c16 -8 41 -28 56 -44z m4796 -134 c-2 -6 20 -28 48 -48 125
-88 155 -124 85 -100 -37 13 -50 6 -35 -19 8 -12 28 -18 65 -20 61 -4 105 -30
72 -43 -10 -4 -30 -8 -45 -8 -18 -1 -28 -6 -28 -16 0 -17 3 -17 75 -16 47 2
51 -1 72 -33 l23 -36 -24 -6 c-13 -3 -39 -4 -57 -2 -25 2 -34 -1 -37 -13 -4
-21 27 -29 87 -23 51 6 57 3 90 -43 l22 -33 -51 0 c-36 0 -52 4 -56 15 -7 17
-30 20 -38 6 -20 -32 36 -61 118 -61 56 0 51 5 106 -93 l33 -58 -74 7 c-41 3
-90 15 -110 25 -38 19 -109 91 -109 111 0 6 -38 82 -85 167 -46 86 -91 176
-100 201 -9 25 -36 65 -62 92 -39 39 -43 47 -27 51 33 8 44 7 42 -4z m-5070
-68 c31 -26 83 -64 114 -84 72 -46 83 -64 97 -160 6 -43 22 -99 35 -126 l25
-48 -29 6 c-40 9 -214 172 -250 235 -27 47 -41 94 -54 189 -2 20 -2 37 0 37 3
0 31 -22 62 -49z m759 -20 c-3 -39 -15 -87 -26 -109 -28 -55 -110 -142 -190
-202 -38 -28 -72 -57 -75 -65 -10 -26 -22 -16 -35 28 -7 23 -21 57 -32 75 -10
18 -19 40 -19 48 0 9 28 44 63 78 44 45 87 75 148 105 47 23 101 58 120 77 18
18 37 34 42 34 6 0 8 -28 4 -69z m-507 -79 c126 -193 180 -308 180 -387 0 -55
-19 -53 -76 8 -79 85 -103 133 -119 234 -18 119 -24 183 -16 183 3 0 17 -17
31 -38z m548 -174 c-6 -95 -38 -156 -127 -251 -37 -40 -82 -91 -98 -114 l-30
-42 -52 59 c-57 65 -58 73 -18 140 39 64 111 131 209 196 53 35 100 69 103 74
14 23 17 6 13 -62z m-613 -181 c59 -35 60 -36 89 -119 16 -45 42 -112 58 -147
15 -35 26 -66 24 -69 -9 -9 -203 114 -252 160 -88 83 -144 218 -128 312 l6 38
72 -70 c39 -39 98 -86 131 -105z m6560 46 c-4 -49 -16 -113 -26 -143 -25 -72
-25 -94 1 -87 11 3 20 2 20 -2 0 -15 -59 -99 -96 -137 -37 -38 -45 -42 -149
-62 -60 -12 -145 -22 -188 -22 -99 0 -263 18 -301 33 -29 11 -29 11 39 34 38
13 72 23 75 23 4 0 34 -19 68 -41 64 -43 92 -46 92 -9 0 14 -7 20 -21 20 -11
0 -36 11 -55 24 l-35 24 52 12 c49 12 58 11 134 -15 84 -30 130 -29 142 1 9
24 -11 38 -35 23 -16 -10 -29 -10 -66 1 -45 12 -71 30 -44 30 7 0 37 11 65 25
51 23 54 23 105 9 39 -12 57 -13 75 -5 26 12 28 49 2 42 -20 -7 -68 -5 -75 2
-13 13 52 56 86 57 53 2 104 22 108 44 3 15 0 18 -19 12 -79 -21 -77 -23 -31
31 41 50 53 83 30 83 -6 0 -24 -15 -39 -32 -25 -29 -28 -30 -29 -13 0 12 -5
26 -10 31 -8 8 8 21 49 43 33 17 63 36 66 41 14 23 16 5 10 -77z m-5910 -128
c25 -166 20 -202 -51 -341 -33 -64 -64 -116 -69 -115 -6 1 -42 25 -82 54 l-72
52 0 53 c-1 41 7 68 34 122 37 74 204 302 216 295 4 -3 15 -56 24 -120z m-432
-35 c42 -39 92 -93 111 -119 32 -43 35 -51 26 -82 -6 -19 -10 -47 -10 -62 0
-16 -4 -27 -8 -25 -114 46 -120 50 -156 128 -33 69 -96 242 -96 263 0 13 50
-25 133 -103z m2197 -50 l0 -160 -249 0 c-218 0 -250 2 -255 16 -8 21 -8 289
1 297 3 4 118 7 255 7 l248 0 0 -160z m2038 20 c1 -74 0 -145 -3 -158 l-5 -22
-258 2 -257 3 -3 158 -3 157 263 -2 263 -3 3 -135z m-3377 -26 c73 -56 144
-135 177 -199 l27 -50 0 -330 c0 -364 0 -363 66 -446 17 -22 29 -42 27 -45
-10 -9 -126 75 -171 125 -73 82 -82 125 -71 346 15 304 12 357 -25 453 -18 45
-48 105 -67 134 -19 28 -38 56 -41 61 -9 14 12 1 78 -49z m3934 -91 c32 -16
35 -20 35 -62 0 -46 0 -46 57 -76 49 -26 60 -37 75 -75 24 -63 23 -156 -2
-197 -33 -56 -50 -58 -143 -22 -45 18 -88 37 -94 43 -7 6 -17 35 -23 65 -16
83 -30 105 -69 109 -62 6 -81 -4 -81 -43 0 -32 -4 -37 -44 -57 -29 -14 -50
-18 -62 -13 -11 5 -22 9 -26 9 -4 1 -19 18 -33 38 -20 30 -25 49 -25 101 0 75
14 98 88 146 55 35 95 39 147 14 33 -16 37 -16 82 5 27 11 55 23 63 26 8 2 16
5 17 5 1 1 18 -7 38 -16z m-4235 -177 c19 -81 47 -392 37 -403 -4 -3 -23 -2
-44 2 -70 12 -183 156 -183 231 0 41 24 120 70 229 20 50 41 99 45 110 6 17
11 11 32 -34 13 -30 33 -91 43 -135z m-785 96 c61 -30 133 -65 161 -78 27 -14
71 -46 96 -72 47 -47 151 -192 144 -199 -2 -2 -34 6 -70 18 -37 11 -99 26
-137 33 -61 10 -78 18 -131 61 -34 28 -81 76 -104 108 -50 68 -104 197 -76
185 4 -1 57 -27 117 -56z m935 -155 c69 -140 94 -245 87 -362 -8 -133 -9 -134
-73 -79 -75 64 -82 95 -86 356 -2 160 0 204 9 196 7 -5 35 -55 63 -111z m-525
20 c85 -58 165 -136 165 -161 0 -28 51 -114 89 -150 17 -17 31 -33 31 -38 0
-17 -58 -7 -116 21 -67 32 -117 78 -174 161 -39 58 -140 233 -140 244 0 10 77
-32 145 -77z m5692 -32 c17 -7 34 -21 37 -32 4 -10 44 -39 89 -64 115 -64 156
-130 107 -174 -11 -10 -20 -24 -20 -31 0 -7 -13 -29 -30 -47 -16 -19 -43 -70
-60 -114 -17 -45 -39 -87 -48 -96 -12 -10 -50 -16 -134 -19 -112 -5 -117 -5
-122 16 -11 41 -6 84 14 109 11 14 20 29 20 34 0 5 -18 27 -40 48 -22 21 -40
45 -40 52 0 7 16 19 35 27 34 15 35 16 35 75 0 54 -3 62 -31 85 -17 14 -37 26
-44 26 -8 0 -19 8 -24 18 -8 15 -4 25 23 51 61 59 144 72 233 36z m-5962 -149
c136 -18 289 -69 338 -113 21 -18 53 -41 72 -50 19 -9 35 -20 35 -24 0 -3 -20
-12 -44 -19 -67 -19 -247 -9 -319 18 -73 26 -172 96 -221 156 l-37 46 38 0
c21 0 83 -6 138 -14z m2777 -82 c45 -23 106 -83 133 -128 26 -44 75 -187 75
-217 0 -16 -57 -57 -64 -47 -1 2 -10 24 -20 49 -41 111 -118 184 -206 196
-171 23 -145 -198 37 -315 27 -17 61 -34 77 -38 26 -6 28 -10 23 -42 -4 -19
-8 -36 -10 -38 -8 -8 -115 30 -179 63 -132 69 -208 185 -208 316 0 116 70 214
164 227 51 7 139 -6 178 -26z m783 -9 c80 -60 108 -194 64 -310 -28 -75 -102
-153 -186 -198 -72 -37 -167 -69 -177 -60 -3 4 -6 20 -6 37 0 28 6 34 52 55
29 13 78 50 110 81 45 45 60 69 73 114 18 63 11 107 -22 132 -30 22 -96 17
-153 -13 -59 -31 -99 -81 -133 -164 l-22 -55 -33 13 c-39 16 -40 27 -6 129 32
98 62 150 113 197 53 48 89 65 153 75 74 11 130 0 173 -33z m-1760 -230 c52
-78 115 -198 129 -242 7 -22 5 -23 -51 -23 l-59 0 -28 88 c-42 130 -80 222
-125 302 -23 40 -41 75 -41 78 1 16 126 -130 175 -203z m-1105 94 c31 -14 87
-64 187 -165 160 -163 212 -195 338 -214 41 -5 342 -10 733 -10 629 0 665 -1
700 -19 20 -10 63 -27 95 -37 31 -10 56 -23 54 -28 -3 -8 -251 -11 -813 -11
l-809 0 -56 23 c-31 12 -89 48 -130 78 -41 31 -119 78 -174 105 -61 29 -115
62 -137 86 -39 40 -128 187 -128 211 0 19 78 8 140 -19z m857 -89 c61 -70 125
-183 139 -242 6 -28 6 -28 -48 -28 -53 0 -55 1 -72 38 -19 38 -136 341 -136
350 0 10 53 -43 117 -118z m-1031 92 c9 -6 74 -116 74 -126 0 -2 -28 -14 -62
-25 -86 -28 -254 -54 -305 -47 -59 8 -131 46 -194 104 l-53 49 160 -1 c146 0
165 2 229 26 71 25 131 34 151 20z m859 -236 c55 -108 57 -126 12 -126 l-32 0
-33 124 c-17 68 -32 128 -32 132 1 19 42 -45 85 -130z m-699 4 c23 -21 54 -42
68 -46 28 -7 31 -15 16 -45 -41 -75 -259 -65 -391 18 l-31 20 52 6 c33 4 70
18 99 36 39 25 93 45 135 50 5 1 28 -17 52 -39z m2441 -29 c82 -38 130 -145
104 -232 -54 -180 -299 -186 -359 -10 -34 97 10 199 103 242 51 24 99 24 152
0z m-2967 -250 c156 -61 352 -59 609 4 151 37 281 46 338 24 27 -11 26 -12
-72 -60 -117 -57 -240 -103 -346 -130 -76 -20 -76 -20 -170 1 -278 62 -425
122 -532 220 -37 34 -67 65 -67 70 0 4 37 -17 82 -46 45 -30 116 -67 158 -83z
m2644 -138 c-37 -43 -116 -126 -174 -185 -88 -90 -110 -108 -136 -108 -35 0
-105 53 -89 68 124 116 386 352 405 365 25 17 25 17 44 -22 l19 -40 -69 -78z
m686 -39 c106 -97 194 -183 197 -192 9 -22 -45 -62 -85 -62 -28 0 -45 13 -118
88 -87 88 -254 275 -254 285 0 2 7 21 15 41 13 31 18 35 35 26 10 -6 105 -89
210 -186z m-2363 123 c-73 -89 -203 -168 -329 -201 -83 -21 -392 -39 -585 -33
-170 4 -259 21 -293 53 -12 12 26 14 280 14 331 0 427 10 583 60 89 28 268
103 342 142 17 9 32 14 34 12 2 -2 -12 -23 -32 -47z m513 37 c0 -14 -47 -82
-103 -149 -112 -134 -221 -207 -393 -265 -90 -31 -292 -76 -300 -67 -3 2 41
31 98 62 164 92 253 155 413 294 l150 130 68 1 c37 0 67 -3 67 -6z m285 -16
c-19 -60 -86 -169 -141 -228 -38 -39 -95 -84 -145 -114 -81 -49 -296 -142
-305 -134 -2 3 47 46 110 96 124 100 166 145 275 300 l73 102 70 0 c67 0 69
-1 63 -22z m3059 -6 c4 -10 13 -28 21 -42 8 -14 15 -44 15 -67 0 -41 23 -114
43 -141 7 -9 13 -10 20 -3 7 7 5 28 -6 63 -17 56 -37 170 -31 177 7 8 64 -22
64 -34 0 -7 17 -34 39 -61 45 -57 84 -144 101 -226 7 -37 16 -58 25 -58 23 0
24 12 9 79 -19 81 -67 187 -102 225 -28 30 -26 30 46 1 35 -14 48 -28 73 -74
16 -31 41 -71 54 -90 16 -22 25 -47 25 -73 0 -39 21 -61 40 -42 17 17 -15 117
-53 167 -20 27 -37 52 -37 57 0 5 27 -3 61 -18 55 -24 63 -31 84 -77 32 -70
51 -93 65 -79 9 9 5 24 -14 60 -14 26 -24 49 -23 50 2 2 30 -1 64 -6 39 -5 76
-18 104 -37 l43 -28 -34 -5 c-43 -6 -49 -25 -14 -43 l27 -14 -34 -11 c-19 -6
-58 -13 -86 -16 -29 -4 -99 -20 -155 -36 -57 -17 -119 -30 -139 -30 -73 0
-222 98 -270 178 -12 20 -30 45 -40 54 -11 11 -19 41 -23 95 -4 43 -9 90 -12
104 -4 24 -2 26 20 22 13 -3 27 -12 30 -21z m-2004 -120 c0 -34 -49 -231 -64
-261 -25 -47 -66 -63 -99 -38 -15 11 -13 25 33 172 28 88 52 166 55 172 6 18
75 -24 75 -45z m261 -104 c28 -89 53 -167 56 -175 3 -7 -6 -18 -21 -24 -61
-28 -100 27 -136 188 -27 122 -26 135 13 155 17 9 33 17 34 17 1 1 25 -72 54
-161z m-1024 -315 c78 -63 202 -121 303 -140 151 -30 312 10 457 113 41 30 76
54 78 54 2 0 37 -24 78 -54 93 -66 180 -102 290 -117 72 -11 96 -10 168 4 100
19 226 79 305 143 l55 45 22 -28 c84 -110 191 -175 299 -181 76 -5 202 19 261
50 22 11 41 17 44 14 20 -19 -132 -175 -199 -206 -93 -42 -244 -19 -338 53
-24 18 -48 36 -54 41 -8 5 -32 -5 -66 -26 -87 -56 -152 -86 -247 -114 -76 -22
-106 -26 -218 -26 -147 1 -247 21 -344 71 l-57 28 -58 -29 c-98 -49 -194 -69
-341 -70 -112 0 -142 4 -218 26 -95 28 -160 58 -247 114 -34 21 -58 31 -66 26
-6 -5 -30 -23 -54 -41 -94 -72 -245 -95 -338 -53 -67 31 -219 187 -199 206 3
3 22 -3 44 -14 59 -31 185 -55 261 -50 92 5 167 43 248 125 35 36 64 69 64 74
0 15 8 11 67 -38z m538 -525 c62 -47 150 -85 227 -98 139 -24 301 24 411 120
l47 41 44 -30 c65 -45 192 -106 260 -126 89 -26 232 -17 310 18 32 15 63 27
69 27 18 0 -44 -60 -103 -99 -165 -112 -337 -121 -521 -28 -59 30 -68 32 -85
20 -41 -31 -152 -81 -215 -97 -146 -36 -289 -12 -474 80 l-70 35 -70 -46 c-79
-51 -114 -64 -202 -72 -103 -9 -194 25 -330 126 -65 48 -80 68 -40 56 100 -31
153 -39 272 -39 128 -1 131 -1 199 33 44 21 90 55 125 91 l56 58 25 -20 c14
-10 43 -33 65 -50z"/>
</g>
</svg>
