<?xml version="1.0" standalone="no"?>
<!DOCTYPE svg PUBLIC "-//W3C//DTD SVG 20010904//EN"
 "http://www.w3.org/TR/2001/REC-SVG-20010904/DTD/svg10.dtd">
<svg version="1.0" xmlns="http://www.w3.org/2000/svg"
 width="1772.000000pt" height="1772.000000pt" viewBox="0 0 1772.000000 1772.000000"
 preserveAspectRatio="xMidYMid meet">

<g transform="translate(0.000000,1772.000000) scale(0.100000,-0.100000)"
fill="#000000" stroke="none">
<path d="M8830 17140 c-14 -5 -133 -39 -265 -75 -2194 -610 -3654 -1353 -4960
-2525 -326 -293 -768 -753 -1100 -1145 -406 -478 -901 -1140 -1297 -1731
l-127 -189 -11 -245 c-28 -600 -24 -1502 10 -2010 165 -2468 948 -4309 2890
-6796 l95 -121 270 -101 c2062 -773 3646 -1048 5274 -917 1139 92 2394 394
3884 935 l227 82 169 212 c1633 2049 2400 3679 2695 5726 80 553 123 1127 135
1800 7 385 -2 1211 -14 1368 l-7 83 -212 317 c-1114 1667 -2112 2724 -3348
3548 -1036 691 -2319 1245 -4014 1733 -210 61 -247 67 -294 51z m113 -2615
c27 -30 108 -100 180 -154 282 -211 354 -294 372 -426 4 -34 -27 -387 -94
-1071 -56 -561 -101 -1042 -101 -1068 0 -36 5 -52 25 -71 46 -47 126 -24 140
40 3 11 50 481 105 1045 110 1123 128 1307 136 1332 4 13 21 4 88 -45 46 -34
126 -93 179 -131 131 -94 229 -196 269 -282 60 -127 65 -91 -152 -1289 -125
-689 -190 -1072 -186 -1095 12 -79 104 -96 149 -27 9 15 85 411 197 1026 99
552 188 1020 197 1042 19 48 96 119 166 153 163 80 311 50 573 -117 147 -93
156 -102 112 -111 -58 -11 -136 -54 -189 -103 -98 -91 -161 -215 -213 -418
-14 -55 -188 -892 -386 -1860 -199 -968 -364 -1768 -367 -1779 -4 -15 -10 -13
-37 20 -70 86 -159 180 -238 251 -91 84 -289 234 -380 289 l-58 35 0 307 c0
304 1 308 26 387 20 60 28 108 32 193 10 239 -40 361 -298 722 -151 213 -201
307 -236 451 -30 121 -38 139 -63 139 -29 0 -38 -19 -60 -115 -37 -174 -80
-261 -223 -458 -222 -305 -285 -429 -310 -617 -14 -106 -1 -225 37 -333 25
-72 25 -78 25 -373 l-1 -299 -107 -70 c-201 -132 -410 -314 -558 -488 l-49
-58 -102 498 c-493 2407 -638 3103 -664 3198 -38 140 -103 274 -167 346 -54
59 -144 114 -220 133 l-45 12 124 81 c213 139 308 177 434 177 70 0 90 -5 150
-32 87 -41 150 -92 176 -145 15 -29 73 -327 205 -1055 176 -974 185 -1016 211
-1044 48 -50 119 -29 136 41 5 19 -338 1964 -358 2031 -2 8 -9 55 -15 103 -28
228 55 359 365 580 83 59 162 116 176 127 l27 20 11 -82 c6 -46 61 -586 121
-1200 60 -615 114 -1127 120 -1138 35 -66 136 -47 155 30 3 14 -40 484 -95
1045 -67 670 -100 1046 -97 1095 2 48 12 93 25 124 31 68 143 175 340 324 93
71 176 142 195 167 17 24 34 44 37 44 3 1 27 -24 53 -54z m66 -3165 c47 -69
114 -168 149 -220 144 -211 188 -374 147 -549 -25 -105 -70 -183 -213 -374
-76 -100 -150 -206 -165 -235 -16 -28 -30 -52 -32 -52 -2 0 -21 28 -41 63 -21
34 -94 136 -162 226 -189 251 -228 345 -220 526 8 158 52 253 233 510 51 72
114 165 140 209 l48 78 16 -28 c9 -15 54 -85 100 -154z m-5649 -967 c-17 -92
-56 -287 -86 -433 -68 -324 -78 -404 -71 -545 15 -286 132 -470 353 -552 58
-22 91 -26 204 -30 222 -8 358 28 788 206 418 173 734 290 1020 377 l113 34
77 -16 c358 -73 512 -283 472 -644 -18 -162 -53 -314 -167 -710 -207 -721
-253 -975 -240 -1320 24 -665 328 -1124 930 -1405 163 -76 455 -168 655 -206
42 -8 59 -15 50 -20 -23 -15 -429 -147 -593 -193 -408 -115 -790 -186 -1153
-217 -202 -17 -553 -7 -702 20 -424 75 -688 245 -822 527 -51 110 -51 116 10
97 156 -48 415 -77 645 -72 155 4 157 4 184 31 36 36 36 93 0 124 -24 20 -35
21 -243 21 -248 0 -402 20 -574 75 -188 60 -256 104 -401 255 -85 89 -123 141
-167 229 -29 57 -68 172 -60 179 1 2 37 -8 78 -21 106 -35 275 -62 458 -74
239 -15 341 -13 382 8 67 33 78 103 23 139 -24 16 -49 17 -212 15 -296 -5
-479 27 -664 116 -279 134 -447 358 -447 594 0 37 2 68 4 68 2 0 34 -13 71
-30 188 -84 552 -161 777 -164 83 -1 100 2 125 20 15 12 29 30 31 42 10 64
-57 96 -243 117 -436 49 -633 121 -799 290 -111 112 -196 270 -241 449 -22 87
-42 236 -32 236 2 0 51 -22 108 -49 178 -84 420 -154 714 -207 162 -29 205
-28 249 7 48 38 26 96 -46 123 -24 9 -113 27 -198 41 -650 108 -982 320 -1082
692 -27 102 -29 282 -4 403 56 268 158 493 481 1060 89 157 187 331 216 387
30 55 56 100 57 98 2 -2 -10 -79 -28 -172z m11350 -383 c329 -573 446 -868
457 -1155 4 -110 2 -144 -16 -218 -92 -386 -422 -602 -1086 -712 -88 -14 -174
-30 -191 -36 -70 -22 -100 -94 -53 -130 42 -32 96 -33 255 -4 297 54 541 125
722 210 l92 44 0 -52 c0 -73 -32 -218 -69 -312 -51 -132 -115 -231 -211 -326
-73 -74 -102 -94 -191 -138 -159 -78 -295 -111 -598 -146 -146 -17 -209 -38
-236 -79 -21 -31 -13 -58 23 -83 80 -54 632 30 864 132 46 20 88 39 95 41 20
9 27 -65 14 -141 -24 -145 -115 -287 -256 -401 -213 -172 -460 -239 -852 -232
-191 3 -191 3 -217 -21 -48 -45 -28 -116 40 -141 53 -21 444 -4 624 26 82 14
219 49 272 69 15 6 15 2 1 -51 -45 -174 -210 -389 -399 -520 -61 -42 -242
-106 -381 -134 -132 -26 -355 -41 -509 -33 -114 6 -122 5 -142 -15 -43 -43
-41 -109 5 -139 24 -16 54 -18 253 -17 242 0 370 14 533 57 55 15 87 20 87 13
0 -6 -23 -57 -51 -114 -129 -259 -385 -430 -750 -501 -185 -35 -317 -44 -574
-38 -414 10 -851 83 -1365 229 -192 54 -560 175 -574 188 -4 4 18 13 50 20
208 40 464 119 626 191 835 374 1126 1099 873 2179 -18 80 -76 294 -129 475
-116 402 -149 535 -176 688 -73 428 54 649 427 743 l101 25 104 -30 c248 -72
533 -177 1008 -371 448 -183 583 -220 789 -220 182 0 298 41 406 141 74 69
126 161 156 276 17 61 21 109 22 218 0 155 2 145 -101 650 -39 187 -73 365
-77 395 -6 55 -6 55 88 -115 51 -93 149 -267 217 -385z m-6091 -43 c86 -113
143 -225 171 -337 27 -107 59 -160 99 -160 46 0 75 46 110 173 29 105 84 212
172 332 l74 100 12 -327 c14 -411 35 -551 110 -753 87 -235 216 -425 534 -792
92 -105 196 -229 232 -275 162 -208 254 -392 302 -605 9 -40 19 -73 22 -73 10
0 117 63 189 111 278 186 429 419 465 715 15 125 6 212 -56 594 -76 468 -59
627 81 760 96 91 227 127 430 117 66 -4 131 -10 145 -15 23 -9 22 -10 -21 -32
-236 -120 -339 -351 -310 -691 16 -178 60 -373 174 -769 142 -496 175 -630
212 -860 22 -139 29 -415 14 -551 -79 -725 -571 -1154 -1520 -1324 -80 -14
-158 -31 -175 -37 -16 -7 -66 -46 -110 -88 -44 -42 -109 -100 -144 -129 -194
-159 -623 -406 -826 -476 -161 -55 -301 -22 -560 132 -213 126 -474 320 -647
481 -48 45 -98 84 -110 87 -13 3 -86 16 -163 30 -524 95 -888 258 -1146 514
-265 263 -381 573 -381 1016 -1 308 43 535 216 1143 63 218 126 450 140 514
101 450 67 719 -113 899 -36 36 -95 82 -130 101 l-64 36 49 9 c92 15 313 9
379 -11 170 -51 254 -143 291 -316 23 -109 14 -237 -42 -575 -42 -255 -48
-309 -48 -445 -1 -121 3 -171 18 -230 71 -276 240 -482 544 -661 47 -28 88
-47 92 -42 4 4 15 42 25 83 67 283 172 453 545 881 528 605 630 872 630 1640
0 124 4 208 9 205 5 -4 41 -48 80 -99z m-274 -509 c-27 -259 -93 -456 -226
-676 -66 -106 -164 -233 -346 -442 -177 -205 -264 -310 -327 -397 -21 -29 -39
-53 -40 -53 -5 0 7 159 20 255 72 527 355 973 838 1319 43 31 80 56 83 56 2 0
1 -28 -2 -62z m1210 -18 c425 -315 690 -709 783 -1165 23 -109 42 -267 42
-341 l0 -47 -74 99 c-68 92 -109 141 -367 439 -238 276 -351 459 -429 694 -37
110 -70 284 -70 365 0 43 -7 46 115 -44z m1137 -4974 c121 -22 222 -56 392
-131 184 -82 553 -216 716 -261 129 -36 337 -74 402 -74 20 0 43 -6 50 -14 8
-7 29 -80 47 -162 42 -192 96 -408 115 -461 l15 -42 -47 -3 c-87 -6 -231 10
-339 37 -148 37 -286 89 -573 215 -435 192 -598 247 -802 271 -192 22 -571 0
-813 -47 -267 -52 -560 -149 -829 -273 -49 -23 -90 -41 -92 -41 -2 0 -4 144
-4 320 l0 319 38 6 c68 12 164 46 306 109 174 78 192 84 446 145 226 55 388
86 525 100 118 13 338 6 447 -13z m-2747 -35 c164 -29 416 -88 498 -116 37
-13 111 -52 165 -86 53 -35 126 -74 162 -86 l65 -22 3 -315 c1 -174 -1 -316
-6 -316 -4 0 -62 24 -127 54 -326 146 -632 235 -977 283 -179 24 -590 25 -710
0 -169 -34 -388 -122 -710 -283 -145 -73 -305 -137 -420 -168 -166 -46 -399
-59 -385 -22 18 47 52 177 86 327 22 96 47 204 56 240 l17 66 145 7 c80 4 196
15 257 26 219 38 514 132 724 232 252 119 402 170 577 197 106 17 445 6 580
-18z m-221 -705 c343 -48 657 -143 1011 -307 l157 -72 46 20 c26 12 106 48
177 81 222 102 472 186 705 236 220 47 358 60 615 61 270 0 320 -7 527 -76
109 -36 194 -71 543 -224 347 -153 578 -215 819 -221 l139 -3 45 -80 c24 -44
67 -105 94 -136 46 -51 50 -59 44 -91 -11 -55 -32 -60 -210 -46 -318 24 -522
85 -1071 317 -285 121 -379 155 -535 194 -182 45 -325 63 -495 64 -249 1 -397
-32 -760 -166 -278 -103 -366 -131 -474 -151 -196 -37 -305 -15 -756 151 -363
134 -511 167 -760 166 -170 -1 -313 -19 -495 -64 -156 -39 -250 -73 -535 -194
-549 -232 -753 -293 -1071 -317 -178 -14 -199 -9 -210 47 -6 32 -2 40 35 80
45 49 99 129 132 198 l22 44 156 6 c255 8 418 58 831 257 325 156 492 217 652
240 90 13 494 3 622 -14z"/>
<path d="M8865 9354 c-14 -15 -36 -51 -50 -80 -42 -89 -142 -402 -171 -536
l-28 -127 -29 25 c-57 48 -124 20 -150 -64 -9 -26 -23 -85 -32 -132 -33 -167
-81 -281 -227 -525 -128 -217 -144 -245 -190 -355 -143 -342 -154 -728 -30
-1003 88 -194 250 -356 457 -459 136 -67 124 -67 199 -10 91 71 160 95 266 95
106 0 172 -24 264 -95 75 -58 63 -58 206 13 494 246 661 761 449 1384 -53 153
-119 278 -339 640 -190 311 -252 426 -307 569 -43 111 -97 323 -113 441 -28
213 -43 245 -111 245 -30 0 -46 -6 -64 -26z m61 -280 c44 -256 134 -514 246
-708 23 -39 109 -181 191 -316 228 -370 312 -543 362 -739 85 -336 39 -642
-131 -862 -72 -94 -194 -190 -314 -249 l-45 -22 -60 40 c-93 62 -172 86 -290
86 -124 1 -214 -25 -300 -85 l-59 -41 -45 22 c-391 190 -558 572 -460 1055 37
182 99 324 254 585 156 262 218 402 250 571 8 46 17 84 18 86 12 11 183 -406
253 -612 76 -227 90 -323 76 -497 -14 -153 -47 -349 -92 -537 -17 -68 -29
-126 -27 -128 2 -2 30 54 62 124 140 310 215 554 215 700 0 139 -93 433 -245
776 -65 149 -67 170 -30 355 24 116 142 498 151 489 3 -2 11 -44 20 -93z"/>
<path d="M8752 6015 c-94 -26 -117 -53 -147 -171 -17 -70 -35 -210 -35 -277 0
-43 -7 -60 -65 -146 -35 -53 -74 -119 -86 -145 -45 -102 -9 -201 126 -344 124
-132 240 -201 336 -202 129 0 342 160 444 334 59 102 49 162 -55 320 l-70 107
0 127 c-1 136 -18 258 -44 314 -10 20 -33 44 -54 55 -74 42 -246 55 -350 28z
m235 -117 c85 -21 104 -70 110 -278 l5 -155 37 -65 c85 -150 91 -190 43 -286
-61 -121 -198 -255 -277 -270 -50 -9 -116 26 -189 99 -96 95 -166 217 -166
287 0 17 26 80 58 144 56 108 59 117 66 208 13 189 39 279 90 305 57 31 131
34 223 11z"/>
</g>
</svg>
